# xmcd
#
# Track frame offsets: 
#        150
#        13322
#        27192
#        38779
#        52839
#        65533
#        84432
#        98043
#        106488
#        121725
#        133579
#        148448
#        161908
#        174261
#        188748
#        198331
#        209953
#        224828
#        235183
#        244476
#
# Disc length: 3400 seconds
#
# Revision: 1
# Processed by: cddbd v1.5.2PL0 Copyright (c) Steve Scherf et al.
# Submitted via: ExactAudioCopyFreeDBPlugin 1.0
#
DISCID=2e0d4614
DTITLE=Various Artist - Passion for Country - CD 1
DYEAR=2009
DGENRE=Country
TTITLE0=Wanted Man (Johny Cash)
TTITLE1=Home Is Where You re Happy (Willie Nelson)
TTITLE2=Ravishing Ruby (Tom T. Hall)
TTITLE3=No Tomorrow In Sight (Willie Nelson)
TTITLE4=I Walk The Line (Johny Cash)
TTITLE5=The King Of Oak Street (Kenny Rogers)
TTITLE6=Tennessee Waltz (Pattie Page)
TTITLE7=Country Boy (Johny Cash and Tennessee Two)
TTITLE8=Sixteen Tons (Frankie Laine)
TTITLE9=Calico Silver (Kenny Rogers)
TTITLE10=Entre Tapas E Beijos (Ray Conniff)
TTITLE11=Smoke, Smoke, Smoke (Tex Williams)
TTITLE12=These Boots Are Made For Walking (Lee Hazlewood)
TTITLE13=Luar Do Sertao (Ray Conniff)
TTITLE14=In The Jailhouse Now (Webb Pierce)
TTITLE15=E O Amor (Ray Conniff)
TTITLE16=After All (Kenny Rogers and The First Edition)
TTITLE17=White Lighting (Waylon Jennings)
TTITLE18=Waiting Time (Willie Nelson)
TTITLE19=Daddy Sang Bass (Johny Cash)
EXTD=
EXTT0=
EXTT1=
EXTT2=
EXTT3=
EXTT4=
EXTT5=
EXTT6=
EXTT7=
EXTT8=
EXTT9=
EXTT10=
EXTT11=
EXTT12=
EXTT13=
EXTT14=
EXTT15=
EXTT16=
EXTT17=
EXTT18=
EXTT19=
PLAYORDER=
